<?xml version="1.0" encoding="utf-8"?>
<!-- Generator: Adobe Illustrator 26.4.1, SVG Export Plug-In . SVG Version: 6.00 Build 0)  -->
<svg version="1.1" id="Layer_1" xmlns="http://www.w3.org/2000/svg" xmlns:xlink="http://www.w3.org/1999/xlink" x="0px" y="0px"
	 viewBox="0 0 80.18 79.88" style="enable-background:new 0 0 80.18 79.88;" xml:space="preserve">
<style type="text/css">
	.st0{opacity:0.2;fill:#FFFFFF;}
	.st1{fill:#FFFFFF;}
	.st2{fill:#91D100;}
	.st3{fill:#7100FF;}
	.st4{fill:#FFFFFF;stroke:#FFFFFF;stroke-width:0.1468;stroke-miterlimit:10;}
	.st5{fill:#FF0000;}
	.st6{clip-path:url(#SVGID_00000072966015702421593350000002748041635277723030_);}
	.st7{fill:#EB0045;}
	.st8{opacity:0.75;}
	.st9{fill:none;stroke:#FFFFFF;stroke-width:1.3806;stroke-linecap:round;stroke-miterlimit:10;}
	.st10{clip-path:url(#SVGID_00000149351419903222264520000008737309595995894161_);}
	.st11{clip-path:url(#SVGID_00000034064876344214602580000015703659063707203763_);}
	.st12{clip-path:url(#SVGID_00000003089283826108758530000001813397555224233138_);}
	.st13{clip-path:url(#SVGID_00000000925027698639296420000003718683517646991794_);}
	.st14{clip-path:url(#SVGID_00000140734221851317110330000010657776511110261687_);}
	.st15{fill:#410099;}
	.st16{fill:#A7A4DF;}
	.st17{fill:#CDDE00;}
	.st18{clip-path:url(#SVGID_00000164499026789368834090000018385482525757562284_);}
	.st19{clip-path:url(#SVGID_00000041265984782383504700000003635005034353961650_);}
	.st20{fill-rule:evenodd;clip-rule:evenodd;fill:#CDDE00;}
	.st21{fill-rule:evenodd;clip-rule:evenodd;fill:#410099;}
	.st22{fill-rule:evenodd;clip-rule:evenodd;fill:#A7A4DF;}
	.st23{clip-path:url(#SVGID_00000114032722446242337180000005644364360852475277_);}
	.st24{fill:none;stroke:#606060;stroke-width:0.4756;stroke-miterlimit:10;}
	.st25{fill:#FF0030;}
	.st26{fill:#2D2D2D;}
	.st27{fill:none;stroke:#FFFFFF;stroke-width:0.5088;stroke-miterlimit:10;}
	.st28{fill:#95D200;}
	.st29{fill:#838BFF;}
	.st30{fill:#FFFFFF;stroke:#FFFFFF;stroke-width:0.4406;stroke-miterlimit:10;}
	.st31{fill:#FF003F;}
	.st32{fill:#A4A4A4;}
	.st33{fill:#96908F;}
	.st34{fill:#FFFFFF;stroke:#FFFFFF;stroke-width:0.0922;stroke-miterlimit:10;}
	.st35{fill:url(#SVGID_00000079468930484057104650000007648399352938974651_);}
	.st36{fill:url(#SVGID_00000000205321019082895130000000506199695087590334_);}
	.st37{fill:url(#SVGID_00000018958117080747358830000002819696162046996128_);}
	.st38{fill:url(#SVGID_00000157296260867996593620000001243146932375124662_);}
	.st39{opacity:0.2;enable-background:new    ;}
	.st40{opacity:0.12;enable-background:new    ;}
	.st41{opacity:0.25;fill:#FFFFFF;enable-background:new    ;}
	.st42{fill:#FFFFFF;stroke:#EC174D;stroke-width:0.1869;stroke-miterlimit:10;}
	.st43{fill:#606060;}
	.st44{fill:#FF003E;}
</style>
<g>
	<g>
		<path class="st31" d="M68.28,79.07H11.9c-6.04,0-10.94-4.9-10.94-10.94V11.75c0-6.04,4.9-10.94,10.94-10.94h56.38
			c6.04,0,10.94,4.9,10.94,10.94v56.38C79.22,74.17,74.33,79.07,68.28,79.07z"/>
	</g>
	<g>
		<g>
			<g>
				<g>
					<g>
						<g>
							<g>
								<path class="st1" d="M27.8,55.17h-0.93c-0.08,0-0.15-0.05-0.17-0.12l-1.41-4.28l-1.39,4.28c-0.02,0.07-0.09,0.12-0.17,0.12
									H22.8c-0.08,0-0.15-0.05-0.17-0.13l-1.86-5.88c-0.02-0.05-0.01-0.11,0.03-0.16c0.03-0.05,0.09-0.07,0.15-0.07h0.92
									c0.08,0,0.15,0.05,0.17,0.13l1.27,4.26l1.42-4.27c0.02-0.07,0.09-0.12,0.17-0.12h0.83c0.08,0,0.15,0.05,0.17,0.12l1.44,4.27
									l1.26-4.27c0.02-0.08,0.09-0.13,0.17-0.13h0.9c0.06,0,0.11,0.03,0.15,0.07c0.03,0.05,0.04,0.11,0.03,0.16l-1.86,5.88
									C27.94,55.12,27.87,55.17,27.8,55.17z"/>
							</g>
							<g>
								<path class="st1" d="M38.24,55.17h-0.85c-0.1,0-0.18-0.08-0.18-0.18v-3.25c0-0.3-0.02-0.57-0.07-0.81
									c-0.05-0.23-0.12-0.42-0.23-0.58c-0.1-0.15-0.24-0.27-0.42-0.36c-0.31-0.15-0.83-0.2-1.28-0.01
									c-0.19,0.08-0.36,0.21-0.51,0.37c-0.15,0.17-0.27,0.39-0.37,0.66c-0.09,0.27-0.14,0.59-0.14,0.96v3.01
									c0,0.1-0.08,0.18-0.18,0.18h-0.85c-0.1,0-0.18-0.08-0.18-0.18v-9.5c0-0.1,0.08-0.18,0.18-0.18H34c0.1,0,0.18,0.08,0.18,0.18
									v4.03c0.15-0.16,0.34-0.31,0.55-0.42c0.39-0.22,0.82-0.32,1.27-0.32c0.8,0,1.41,0.24,1.82,0.73c0.4,0.47,0.6,1.1,0.6,1.87
									v3.61C38.42,55.09,38.33,55.17,38.24,55.17z M34.03,50.07L34.03,50.07L34.03,50.07z"/>
							</g>
							<g>
								<path class="st1" d="M43.32,55.17h-0.85c-0.1,0-0.18-0.08-0.18-0.18v-5.88c0-0.1,0.08-0.18,0.18-0.18h0.85
									c0.1,0,0.18,0.08,0.18,0.18v5.88C43.5,55.09,43.42,55.17,43.32,55.17z M42.9,47.63c-0.2,0-0.38-0.07-0.54-0.22
									c-0.16-0.15-0.25-0.34-0.25-0.57c0-0.23,0.08-0.42,0.25-0.57c0.32-0.29,0.75-0.29,1.07,0c0.16,0.15,0.25,0.34,0.25,0.57
									c0,0.23-0.08,0.42-0.25,0.57C43.27,47.56,43.09,47.63,42.9,47.63z"/>
							</g>
							<g>
								<path class="st1" d="M49.28,55.32c-0.47,0-0.93-0.1-1.37-0.29c-0.45-0.2-0.82-0.51-1.11-0.93
									c-0.05-0.08-0.04-0.19,0.04-0.25l0.68-0.5c0.04-0.03,0.09-0.04,0.14-0.03c0.05,0.01,0.09,0.04,0.12,0.09
									c0.13,0.23,0.34,0.43,0.6,0.59c0.41,0.24,0.93,0.28,1.37,0.19c0.14-0.03,0.27-0.08,0.38-0.15c0.1-0.07,0.18-0.15,0.25-0.26
									c0.06-0.1,0.09-0.23,0.09-0.39c0-0.24-0.11-0.41-0.35-0.54c-0.28-0.15-0.7-0.29-1.25-0.42c-0.18-0.04-0.37-0.1-0.57-0.16
									c-0.22-0.07-0.42-0.17-0.6-0.3c-0.19-0.13-0.34-0.31-0.46-0.51c-0.13-0.21-0.19-0.47-0.19-0.78c0-0.33,0.07-0.62,0.2-0.86
									c0.13-0.24,0.31-0.44,0.53-0.59c0.21-0.15,0.46-0.26,0.73-0.33c0.68-0.18,1.42-0.13,2.1,0.19c0.42,0.2,0.74,0.48,0.95,0.85
									c0.05,0.08,0.02,0.18-0.05,0.23l-0.65,0.49c-0.04,0.03-0.1,0.04-0.15,0.03c-0.05-0.01-0.1-0.04-0.12-0.09
									c-0.11-0.21-0.28-0.39-0.5-0.53c-0.33-0.2-0.75-0.26-1.19-0.16c-0.13,0.03-0.24,0.08-0.34,0.14
									c-0.09,0.06-0.17,0.14-0.23,0.23c-0.05,0.09-0.08,0.2-0.08,0.32c0,0.22,0.08,0.37,0.26,0.48c0.21,0.13,0.55,0.25,1.01,0.35
									c0.73,0.15,1.26,0.37,1.62,0.66c0.37,0.31,0.56,0.72,0.56,1.24c0,0.36-0.07,0.68-0.22,0.94c-0.14,0.25-0.33,0.46-0.56,0.62
									c-0.23,0.16-0.49,0.27-0.77,0.34C49.84,55.28,49.56,55.32,49.28,55.32z"/>
							</g>
							<g>
								<path class="st1" d="M60.31,55.17h-0.85c-0.1,0-0.18-0.08-0.18-0.18v-3.25c0-0.3-0.02-0.57-0.07-0.81
									c-0.05-0.23-0.12-0.42-0.23-0.58c-0.1-0.15-0.25-0.27-0.42-0.36c-0.31-0.15-0.82-0.21-1.28-0.01
									c-0.19,0.08-0.36,0.21-0.51,0.37c-0.15,0.17-0.27,0.39-0.37,0.66c-0.09,0.27-0.14,0.59-0.14,0.96v3.02
									c0,0.1-0.08,0.18-0.18,0.18h-0.85c-0.1,0-0.18-0.08-0.18-0.18v-9.5c0-0.1,0.08-0.18,0.18-0.18h0.85
									c0.1,0,0.18,0.08,0.18,0.18v4.03c0.15-0.16,0.34-0.31,0.55-0.42c0.39-0.22,0.82-0.32,1.27-0.32c0.8,0,1.41,0.24,1.82,0.73
									c0.4,0.47,0.6,1.11,0.6,1.87v3.61C60.49,55.09,60.41,55.17,60.31,55.17z M56.1,50.07L56.1,50.07L56.1,50.07z"/>
							</g>
						</g>
					</g>
				</g>
			</g>
			<g>
				<g>
					<path class="st1" d="M63.15,25.26c-0.12-1.16-1.04-2.08-2.24-2.25c-1.16-0.16-2.12,0.45-2.53,1.6
						c-0.41,1.13-0.76,2.29-1.1,3.42c-0.15,0.48-0.29,0.95-0.44,1.43c-0.22,0.71-0.44,1.41-0.66,2.12l-0.18,0.59l-0.02,0l-0.24-0.67
						c-0.21-0.59-0.42-1.18-0.64-1.77c-0.17-0.47-0.34-0.93-0.52-1.4c-0.48-1.31-0.98-2.67-1.51-3.99
						c-0.36-0.88-1.12-1.36-2.17-1.36c-1.04,0-1.78,0.48-2.21,1.43c-0.21,0.46-0.38,0.87-0.52,1.26c-0.6,1.66-1.2,3.33-1.79,4.99
						l-0.55,1.52l-0.05,0l-0.08-0.23c-0.09-0.27-0.19-0.55-0.28-0.83c-0.22-0.67-0.44-1.34-0.65-2.02c-0.46-1.43-0.94-2.9-1.43-4.35
						c-0.37-1.1-1.2-1.75-2.21-1.75c-0.01,0-0.03,0-0.04,0c-0.01,0-0.02-0.01-0.04-0.01h-10.8c-0.07,0-0.14,0.05-0.15,0.13
						c-0.01,0.07,0.03,0.14,0.1,0.16l8.32,2.47H17.19c-0.08,0-0.14,0.06-0.15,0.14c0,0.08,0.05,0.15,0.13,0.16l21.68,2.88H11.69
						c-0.08,0-0.14,0.06-0.15,0.14c-0.01,0.08,0.05,0.15,0.13,0.16l28.83,4.3H22.9c-0.08,0-0.14,0.06-0.15,0.13
						c-0.01,0.08,0.04,0.15,0.12,0.16l19.35,3.6H30.74c-0.07,0-0.14,0.06-0.15,0.13c-0.01,0.07,0.04,0.14,0.11,0.16l14.25,3.52
						c0.07,0.02,0.14,0.04,0.21,0.05l0.14,0.03c0.01,0,0.02,0,0.04,0c0,0,0,0,0,0c0.13,0.02,0.27,0.03,0.41,0.03
						c1.07,0,1.82-0.5,2.21-1.49c0.43-1.09,0.86-2.19,1.29-3.28l0.26-0.66c0.3-0.76,0.59-1.52,0.91-2.35l0.45-1.16
						c0.03,0.06,0.05,0.12,0.08,0.18c0.11,0.25,0.2,0.44,0.27,0.63c0.28,0.7,0.56,1.4,0.83,2.1c0.59,1.48,1.19,3.02,1.82,4.51
						c0.41,0.98,1.25,1.56,2.23,1.56c0.3,0,0.59-0.05,0.88-0.16c0.98-0.36,1.36-1.23,1.63-2.01c1.32-3.75,2.69-7.73,4.32-12.5
						C63.07,26.35,63.21,25.8,63.15,25.26z"/>
				</g>
			</g>
			<g>
				<g>
					<path class="st1" d="M28.91,57.81h0.73l1.29,4.39l2.52-4.39h0.69l-0.73,5.23h-0.49l0.64-4.61h-0.01l-2.64,4.61H30.7l-1.38-4.61
						h-0.01l-0.64,4.61h-0.49L28.91,57.81z"/>
					<path class="st1" d="M36,60.43c0.06-0.4,0.18-0.77,0.36-1.1c0.18-0.34,0.41-0.62,0.68-0.87c0.27-0.24,0.58-0.43,0.93-0.57
						c0.35-0.14,0.72-0.21,1.12-0.21c0.4,0,0.75,0.07,1.07,0.21c0.31,0.14,0.57,0.33,0.77,0.57c0.2,0.24,0.35,0.53,0.43,0.87
						c0.09,0.34,0.1,0.7,0.04,1.1c-0.05,0.4-0.17,0.77-0.35,1.1c-0.18,0.34-0.41,0.63-0.68,0.87c-0.27,0.24-0.58,0.43-0.93,0.57
						c-0.35,0.14-0.72,0.2-1.12,0.2c-0.4,0-0.75-0.07-1.07-0.2c-0.31-0.14-0.57-0.32-0.78-0.57c-0.2-0.24-0.35-0.53-0.43-0.87
						C35.96,61.2,35.94,60.83,36,60.43z M36.49,60.43c-0.04,0.33-0.03,0.63,0.03,0.91c0.06,0.28,0.18,0.52,0.34,0.73
						c0.16,0.21,0.37,0.37,0.63,0.49c0.26,0.12,0.55,0.18,0.89,0.18c0.34,0,0.65-0.06,0.95-0.18c0.29-0.12,0.55-0.28,0.77-0.49
						c0.22-0.21,0.4-0.45,0.55-0.73c0.14-0.28,0.24-0.58,0.28-0.91c0.04-0.33,0.04-0.63-0.03-0.91c-0.06-0.28-0.17-0.52-0.34-0.73
						c-0.16-0.21-0.37-0.37-0.63-0.49c-0.26-0.12-0.56-0.18-0.9-0.18c-0.34,0-0.65,0.06-0.95,0.18c-0.29,0.12-0.55,0.28-0.77,0.49
						c-0.22,0.21-0.4,0.45-0.55,0.73C36.62,59.8,36.53,60.1,36.49,60.43z"/>
					<path class="st1" d="M44.05,57.81h0.63l2.54,4.58h0.01l0.64-4.58h0.49l-0.73,5.23H47l-2.54-4.58h-0.02l-0.64,4.58h-0.49
						L44.05,57.81z"/>
					<path class="st1" d="M50.98,57.81h3.2l-0.06,0.44h-2.71l-0.27,1.86h2.54l-0.06,0.44h-2.54l-0.29,2.04h2.83l-0.06,0.44h-3.32
						L50.98,57.81z"/>
					<path class="st1" d="M57.28,60.79l-1.5-2.98h0.58l1.23,2.48l1.96-2.48h0.55l-2.34,2.98l-0.31,2.25h-0.49L57.28,60.79z"/>
				</g>
			</g>
		</g>
	</g>
</g>
</svg>
